# xmcd
#
# Track frame offsets:
#	150
#	14310
#	29782
#	46829
#	61598
#	77100
#	90823
#	107471
#	122573
#	139550
#	158292
#	174926
#	187975
#	204877
#	224066
#	239887
#	254766
#
# Disc length: 3616 seconds
#
# Revision: 1
# Processed by: cddbd v1.5.2PL0 Copyright (c) Steve Scherf et al.
# Submitted via: audiograbber 1.83.01
#
DISCID=d80e1e11
DTITLE=Luke Combs - What You See Is What You Get
DYEAR=2019
DGENRE=Country
TTITLE0=Beer Never Broke My Heart
TTITLE1=Refrigerator Door
TTITLE2=Even Though I'm Leaving
TTITLE3=Lovin' On You
TTITLE4=Moon Over Mexico
TTITLE5=1, 2 Many
TTITLE6=Blue Collar Boys
TTITLE7=New Every Day
TTITLE8=Reasons
TTITLE9=Every Little Bit Helps
TTITLE10=Dear Today
TTITLE11=What You See Is What You Get
TTITLE12=Does To Me
TTITLE13=Angels Workin' Overtime
TTITLE14=All Over Again
TTITLE15=Nothing Like You
TTITLE16=Better Together
EXTD=
EXTT0=
EXTT1=
EXTT2=
EXTT3=
EXTT4=
EXTT5=
EXTT6=
EXTT7=
EXTT8=
EXTT9=
EXTT10=
EXTT11=
EXTT12=
EXTT13=
EXTT14=
EXTT15=
EXTT16=
PLAYORDER=
